:SAMPLES-PER-SECOND 30
:FULLY-SPECIFIED
:DEGREES
113
root  63.6802 38.4007 -0.0776124 104.488 -86.7574 -104.191
RightUpLeg  -24.3787 -8.39761 1.9965
RightLeg  11.3548 -4.14664 1.28534
RightFoot  5.77222 -0.190513 1.52294
RightToes  5.82063e-011 0 -3.6325e-017
Spine  10.0329 -1.79188 6.37191
Spine1  5.84931 -1.51248 0.197872
HEad  -23.902 4.50181 -5.57836
LeftShoulder1  9.94493 -13.5368 -50.9397
LeftArm  -8.67357 17.4676 -23.0752
LeftForeArm  23.3626 -9.97629 -5.59588
LeftHand  -0.244104 0.0205437 5.32207
RightShoulder  7.02204 10.5516 43.5704
RightArm  -5.05832 -23.6 30.2065
RightForeArm  9.37644 6.97929 7.15218
RightHand  -1.03987 1.89719 -16.6632
LeftUpLeg  16.5164 9.51803 9.83687
LeftLeg  10.6231 3.70984 -1.5296
LeftFoot  -20.7397 -0.513195 -7.73371
LeftToes  4.36525e-011 -9.98543e-011 1.0027e-011
114
root  62.4429 38.2829 -0.294078 99.7535 -85.8801 -99.8101
RightUpLeg  -24.8161 -11.1749 4.64031
RightLeg  15.6881 -0.765925 0.348982
RightFoot  6.9742 0.0769883 -0.206591
RightToes  5.82063e-011 0 -3.6325e-017
Spine  9.87074 -1.7999 8.79061
Spine1  6.06656 -1.20891 -0.455128
HEad  -24.1605 3.62959 -6.22334
LeftShoulder1  9.95596 -13.4712 -51.1888
LeftArm  -9.75318 16.8613 -23.3374
LeftForeArm  22.9683 -11.1259 -5.16842
LeftHand  -0.244104 0.0205437 5.32207
RightShoulder  7.15535 10.5712 44.3728
RightArm  -5.11906 -22.2092 28.6568
RightForeArm  9.98898 5.95016 6.9954
RightHand  -1.12281 2.51059 -16.6174
LeftUpLeg  17.7351 10.5905 11.8944
LeftLeg  12.9307 1.47494 -0.605136
LeftFoot  -20.0668 -0.725815 -11.0827
LeftToes  4.36525e-011 -9.98543e-011 1.0027e-011
115
root  61.2119 38.2434 -0.542907 103.567 -84.9877 -104.078
RightUpLeg  -24.4806 -11.2271 6.04962
RightLeg  19.5973 0.379936 -0.152173
RightFoot  4.60533 0.169329 -0.981294
RightToes  5.82063e-011 0 -3.6325e-017
Spine  9.99253 -1.7216 10.9205
Spine1  6.29857 -0.795543 -0.878179
HEad  -24.3802 3.58026 -6.65396
LeftShoulder1  9.95821 -13.4198 -51.3522
LeftArm  -9.79496 16.9429 -23.8726
LeftForeArm  21.6885 -13.9215 -4.69318
LeftHand  -0.244104 0.0205437 5.32207
RightShoulder  7.37828 10.7074 45.36
RightArm  -5.00329 -19.3198 27.0387
RightForeArm  10.6087 3.95577 6.87355
RightHand  -1.17838 2.88827 -16.6535
LeftUpLeg  17.8954 10.895 13.4963
LeftLeg  17.1466 0.671999 0.423189
LeftFoot  -17.8134 -0.774683 -15.7884
LeftToes  4.36525e-011 -9.98543e-011 1.0027e-011
116
root  60.0091 38.3114 -0.816027 103.012 -84.6341 -103.661
RightUpLeg  -23.2929 -10.6113 6.24235
RightLeg  21.9407 -0.0436845 -0.237479
RightFoot  0.912139 0.107037 -0.924721
RightToes  5.82063e-011 0 -3.6325e-017
Spine  9.77806 -1.7511 12.2352
Spine1  6.46241 -0.59267 -0.968713
HEad  -24.0963 3.93479 -6.78764
LeftShoulder1  9.98686 -13.4723 -51.3415
LeftArm  -7.72027 17.4205 -24.382
LeftForeArm  19.3175 -17.8393 -4.28107
LeftHand  -0.244104 0.0205437 5.32207
RightShoulder  7.41358 10.6747 45.6921
RightArm  -5.12151 -15.5486 26.4671
RightForeArm  10.8331 1.91024 6.78678
RightHand  -1.18403 2.72285 -17.0634
LeftUpLeg  15.1103 9.0811 13.5923
LeftLeg  24.7786 3.36975 2.1136
LeftFoot  -11.8239 -0.0280794 -17.5299
LeftToes  4.36525e-011 -9.98543e-011 1.0027e-011
117
root  58.8547 38.4644 -1.07862 93.939 -84.6707 -94.3935
RightUpLeg  -21.686 -12.2349 6.37288
RightLeg  22.6149 0.594534 0.0422184
RightFoot  -1.66197 0.0117158 -0.271703
RightToes  5.82063e-011 0 -3.6325e-017
Spine  9.21343 -1.8628 13.3724
Spine1  6.40566 -0.498558 -1.18027
HEad  -23.2705 3.70676 -6.55701
LeftShoulder1  9.97648 -13.5511 -51.0566
LeftArm  -4.99673 17.4889 -24.8878
LeftForeArm  18.2212 -21.6792 -4.00422
LeftHand  -0.244104 0.0205437 5.32207
RightShoulder  7.25615 10.511 45.2282
RightArm  -5.51966 -12.244 26.8941
RightForeArm  9.94519 1.68251 6.81142
RightHand  -1.1719 2.35117 -17.6653
LeftUpLeg  9.40821 6.99041 12.9631
LeftLeg  35.0626 6.49181 5.23985
LeftFoot  -2.13468 1.04436 -13.3062
LeftToes  4.36525e-011 -9.98543e-011 1.0027e-011
118
root  57.793 38.6022 -1.29516 80.9522 -84.4291 -81.3578
RightUpLeg  -19.8709 -14.6551 6.44378
RightLeg  22.8218 1.63099 0.623346
RightFoot  -3.48762 -0.0616113 0.552318
RightToes  5.82063e-011 0 -3.6325e-017
Spine  8.90125 -1.92962 15.0548
Spine1  6.28746 -0.155084 -1.81427
HEad  -22.2358 2.68019 -5.93038
LeftShoulder1  9.8564 -13.5371 -50.4911
LeftArm  -4.02199 16.7626 -25.727
LeftForeArm  20.1283 -24.6191 -4.1712
LeftHand  -0.244104 0.0205437 5.32207
RightShoulder  7.20376 10.5614 44.7218
RightArm  -5.45883 -9.71696 27.0529
RightForeArm  7.74593 3.77181 7.17227
RightHand  -1.20371 2.43923 -17.9399
LeftUpLeg  2.78075 5.23604 12.3846
LeftLeg  45.3829 7.17258 8.06983
LeftFoot  5.94239 1.03643 -6.87925
LeftToes  4.36525e-011 -9.98543e-011 1.0027e-011
119
root  56.7372 38.7895 -1.49766 73.0775 -84.3298 -73.8976
RightUpLeg  -17.111 -15.5381 5.70179
RightLeg  22.3725 1.71808 1.27638
RightFoot  -5.35383 -0.102375 1.25841
RightToes  5.82063e-011 0 -3.6325e-017
Spine  8.96088 -1.71311 16.3868
Spine1  6.30142 0.526967 -2.78283
HEad  -21.1699 1.53327 -5.20062
LeftShoulder1  9.6774 -13.4453 -49.8481
LeftArm  -4.42186 15.8204 -26.9547
LeftForeArm  22.5596 -26.673 -4.52272
LeftHand  -0.244104 0.0205437 5.32207
RightShoulder  7.36867 10.896 44.6796
RightArm  -4.18242 -6.99991 26.1996
RightForeArm  5.04841 6.8291 7.88482
RightHand  -1.26331 2.91735 -17.7625
LeftUpLeg  -2.82121 4.45653 11.6204
LeftLeg  53.4837 5.73423 8.68639
LeftFoot  7.92213 0.588383 -3.68961
LeftToes  4.36525e-011 -9.98543e-011 1.0027e-011
120
root  55.6218 39.0622 -1.71186 69.4654 -84.9272 -70.8433
RightUpLeg  -13.4773 -14.5588 4.01518
RightLeg  20.8729 0.697746 1.99033
RightFoot  -6.9352 -0.117935 1.83468
RightToes  5.82063e-011 0 -3.6325e-017
Spine  8.95534 -1.23525 16.6054
Spine1  6.47476 1.29148 -3.69175
HEad  -20.0086 0.806777 -4.8729
LeftShoulder1  9.53193 -13.3587 -49.3521
LeftArm  -4.78618 15.4944 -28.077
LeftForeArm  23.0524 -28.0994 -4.8144
LeftHand  -0.244104 0.0205437 5.32207
RightShoulder  7.51211 11.1645 44.7183
RightArm  -1.46651 -3.37692 25.0523
RightForeArm  2.50206 9.60992 8.44643
RightHand  -1.28148 3.14656 -17.5453
LeftUpLeg  -7.44529 4.76896 10.2478
LeftLeg  58.7122 3.90766 7.46268
LeftFoot  5.67808 0.535542 -3.83709
LeftToes  4.36525e-011 -9.98543e-011 1.0027e-011
121
root  54.4861 39.3104 -1.91577 65.9704 -85.7772 -67.6086
RightUpLeg  -10.1081 -12.8827 2.13778
RightLeg  19.1612 -0.705958 2.91163
RightFoot  -8.11116 -0.121179 2.34228
RightToes  5.82063e-011 0 -3.6325e-017
Spine  8.64184 -0.741628 16.2963
Spine1  6.63276 1.8987 -4.30981
HEad  -18.8105 0.434292 -5.12451
LeftShoulder1  9.43351 -13.2941 -49.0296
LeftArm  -4.53519 15.9812 -28.6713
LeftForeArm  22.2126 -28.9201 -5.04772
LeftHand  -0.244104 0.0205437 5.32207
RightShoulder  7.42343 11.1286 44.2778
RightArm  1.55069 0.693468 24.6537
RightForeArm  0.473185 12.0281 8.33302
RightHand  -1.25802 3.00849 -17.5053
LeftUpLeg  -11.9271 5.57905 8.48071
LeftLeg  61.209 2.82675 6.17603
LeftFoot  3.28945 0.613384 -4.92139
LeftToes  4.36525e-011 -9.98543e-011 1.0027e-011
122
root  53.3529 39.4924 -2.10156 61.3445 -86.5266 -62.948
RightUpLeg  -7.29899 -11.43 0.590677
RightLeg  17.6567 -1.81656 3.84797
RightFoot  -9.26037 -0.113108 2.76361
RightToes  5.82063e-011 0 -3.6325e-017
Spine  8.24987 -0.307908 15.9596
Spine1  6.50942 2.3705 -4.87646
HEad  -17.8246 0.197471 -5.63208
LeftShoulder1  9.36128 -13.2458 -48.7936
LeftArm  -3.84214 17.0198 -28.755
LeftForeArm  21.8007 -29.0836 -5.10841
LeftHand  -0.244104 0.0205437 5.32207
RightShoulder  7.16534 10.9009 43.3692
RightArm  3.40498 4.3003 25.1175
RightForeArm  -1.21332 14.5254 7.59504
RightHand  -1.23174 2.8802 -17.4046
LeftUpLeg  -16.2555 6.46397 6.50956
LeftLeg  61.0974 2.78925 6.04967
LeftFoot  2.00987 0.572832 -4.98916
LeftToes  4.36525e-011 -9.98543e-011 1.0027e-011
123
root  52.2151 39.6383 -2.27991 57.5554 -87.3347 -59.1051
RightUpLeg  -4.53581 -10.3374 -0.612059
RightLeg  16.015 -2.42722 4.46116
RightFoot  -10.4649 -0.0942723 3.02883
RightToes  5.82063e-011 0 -3.6325e-017
Spine  8.1041 0.155108 15.5081
Spine1  6.12365 2.87115 -5.68871
HEad  -17.1878 -0.0767983 -6.00884
LeftShoulder1  9.33518 -13.2525 -48.6373
LeftArm  -3.07063 18.4063 -28.4752
LeftForeArm  22.114 -28.6166 -4.98385
LeftHand  -0.244104 0.0205437 5.32207
RightShoulder  6.89357 10.654 42.3963
RightArm  4.7084 7.12267 25.8903
RightForeArm  -4.16056 17.5487 6.51155
RightHand  -1.21941 2.88308 -17.2294
LeftUpLeg  -19.8061 7.43418 4.41259
LeftLeg  58.3419 3.26977 6.24825
LeftFoot  0.646222 0.47385 -4.55337
LeftToes  4.36525e-011 -9.98543e-011 1.0027e-011
124
root  51.0685 39.7452 -2.4494 55.2457 -88.2777 -56.8593
RightUpLeg  -1.60515 -9.58004 -1.60574
RightLeg  14.1909 -2.51373 4.73839
RightFoot  -11.5536 -0.07249 3.16561
RightToes  5.82063e-011 0 -3.6325e-017
Spine  8.16776 0.613003 14.8978
Spine1  5.89635 3.40299 -6.6878
HEad  -17.1404 -0.224002 -6.28079
LeftShoulder1  9.38761 -13.3313 -48.682
LeftArm  -2.25518 19.9488 -27.8643
LeftForeArm  21.9195 -27.6004 -4.76408
LeftHand  -0.244104 0.0205437 5.32207
RightShoulder  6.67264 10.4348 41.6327
RightArm  5.59081 9.52402 26.5242
RightForeArm  -7.8483 20.984 5.61216
RightHand  -1.22733 2.85533 -17.3941
LeftUpLeg  -22.2881 8.62208 2.34845
LeftLeg  52.9861 3.68515 5.71195
LeftFoot  -0.845029 0.434734 -4.68182
LeftToes  4.36525e-011 -9.98543e-011 1.0027e-011
125
root  49.9075 39.7806 -2.59086 52.9377 -89.0147 -54.6345
RightUpLeg  1.20163 -9.24692 -2.36663
RightLeg  12.6542 -2.14261 4.91656
RightFoot  -12.5881 -0.0511378 3.16004
RightToes  5.82063e-011 0 -3.6325e-017
Spine  8.09785 0.899452 14.4683
Spine1  6.2221 3.79222 -7.6344
HEad  -17.8324 -0.240496 -6.47343
LeftShoulder1  9.50301 -13.4371 -48.9742
LeftArm  -1.36507 21.3614 -27.0389
LeftForeArm  20.6913 -26.0625 -4.48216
LeftHand  -0.244104 0.0205437 5.32207
RightShoulder  6.51881 10.2775 41.0987
RightArm  4.79399 11.8136 26.9124
RightForeArm  -9.31224 24.3274 5.60116
RightHand  -1.26153 2.78824 -18.006
LeftUpLeg  -23.7264 9.99406 0.501027
LeftLeg  45.1633 4.01733 4.71232
LeftFoot  -1.51319 0.441015 -5.01816
LeftToes  4.36525e-011 -9.98543e-011 1.0027e-011
126
root  48.7165 39.7544 -2.69105 60.9052 -89.3699 -62.5508
RightUpLeg  3.72812 -9.27261 -2.85181
RightLeg  11.4881 -1.50537 5.1431
RightFoot  -13.5752 -0.0361627 2.87367
RightToes  5.82063e-011 0 -3.6325e-017
Spine  7.68973 1.02145 14.4167
Spine1  6.96891 4.01825 -8.48188
HEad  -19.0052 -0.0241978 -6.538
LeftShoulder1  9.61336 -13.5248 -49.2887
LeftArm  -0.539392 22.6062 -26.3827
LeftForeArm  19.3388 -23.9083 -4.13109
LeftHand  -0.244104 0.0205437 5.32207
RightShoulder  6.44273 10.2298 40.7321
RightArm  2.92363 13.7353 27.1606
RightForeArm  -8.08753 27.331 6.3061
RightHand  -1.28966 2.7355 -18.5119
LeftUpLeg  -24.0973 11.6192 -1.15888
LeftLeg  34.896 4.18161 3.53926
LeftFoot  -1.19302 0.431381 -4.78074
LeftToes  4.36525e-011 -9.98543e-011 1.0027e-011
127
root  47.4805 39.712 -2.76207 107.708 -89.46 -109.145
RightUpLeg  6.24314 -9.38566 -3.32909
RightLeg  10.112 -0.597885 5.39237
RightFoot  -14.2778 -0.0311965 2.55434
RightToes  5.82063e-011 0 -3.6325e-017
Spine  7.11944 1.20939 14.2523
Spine1  7.64775 4.27912 -9.2459
HEad  -19.9343 0.392152 -6.44572
LeftShoulder1  9.65331 -13.5724 -49.3558
LeftArm  -0.432675 23.9875 -26.1825
LeftForeArm  19.2363 -20.9901 -4.07608
LeftHand  -0.244104 0.0205437 5.32207
RightShoulder  6.42239 10.2494 40.5291
RightArm  2.06114 14.883 27.3924
RightForeArm  -6.51798 30.0062 6.88678
RightHand  -1.27832 2.66856 -18.4991
LeftUpLeg  -23.4742 13.8784 -2.8645
LeftLeg  22.5364 3.38616 1.84768
LeftFoot  0.190344 0.400093 -3.98561
LeftToes  4.36525e-011 -9.98543e-011 1.0027e-011
